#!OML:ASF H:\Terrain\Walking\May29\JustinRory\Justin.ASF
:FULLY-SPECIFIED
:DEGREES
145
root 7.39875 17.5685 -15.9479 3.26054 -2.25426 -1.27673
lowerback 3.71031 0.0529796 -0.959225
upperback 0.893606 0.0626967 2.15062
thorax -1.16627 0.0344963 2.74458
lowerneck -17.0682 -3.052 -10.1974
upperneck 14.8617 -2.8001 6.52655
head 7.62308 -1.30085 3.50969
rclavicle -6.16232e-015 -2.5842e-014
rhumerus 20.3424 0.497063 -51.0035
rradius 103.266
rwrist 11.2906
rhand -27.2538 26.0997
rfingers 7.12502
rthumb -0.665207 -3.87897
lclavicle -6.16232e-015 -2.5842e-014
lhumerus 20.5174 -0.698971 54.9198
lradius 104.706
lwrist -20.1231
lhand -6.45647 33.3384
lfingers 7.12502
lthumb 19.3935 62.3913
rfemur -9.70293 -3.9116 20.6181
rtibia 22.9718
rfoot -13.9577 -9.44724
rtoes 2.97376
lfemur -9.45461 1.90793 -13.8425
ltibia 24.0055
lfoot -15.1139 4.65177
ltoes -20.7044
146
root 7.38806 17.5694 -15.9552 3.3547 -2.32185 -1.7195
lowerback 3.80638 0.0907356 -0.55772
upperback 0.899019 0.131538 2.35483
thorax -1.21792 0.0683903 2.7258
lowerneck -17.1872 -3.18564 -10.4801
upperneck 15.0859 -2.92326 6.62101
head 7.73507 -1.36785 3.57588
rclavicle -2.03754e-015 6.36111e-015
rhumerus 20.4964 0.382 -50.7578
rradius 103.368
rwrist 10.8753
rhand -27.2187 26.0037
rfingers 7.12502
rthumb -0.631279 -3.97509
lclavicle -2.03754e-015 6.36111e-015
lhumerus 20.4202 -0.574159 55.0294
lradius 105.174
lwrist -18.2263
lhand -6.51356 33.5002
lfingers 7.12502
lthumb 19.3386 62.5586
rfemur -9.79434 -3.73706 21.1642
rtibia 22.9025
rfoot -13.8723 -9.54658
rtoes 3.41264
lfemur -9.71526 1.73315 -13.2789
ltibia 24.295
lfoot -15.1293 4.67361
ltoes -18.7308
147
root 7.37544 17.5634 -15.9577 3.35109 -2.31902 -1.97045
lowerback 3.90071 0.124711 -0.241473
upperback 1.00895 0.188551 2.39428
thorax -1.15999 0.094912 2.58546
lowerneck -17.3319 -3.34063 -10.6367
upperneck 15.13 -3.10593 6.75292
head 7.79646 -1.44941 3.62439
rclavicle 6.41081e-015 1.03368e-014
rhumerus 20.5554 0.170226 -50.6159
rradius 103.435
rwrist 10.744
rhand -27.2938 25.8743
rfingers 7.12502
rthumb -0.703801 -4.10425
lclavicle 6.41081e-015 1.03368e-014
lhumerus 20.4635 -0.545565 54.8803
lradius 105.537
lwrist -16.9296
lhand -6.92769 33.744
lfingers 7.12502
lthumb 18.9404 62.8418
rfemur -9.78946 -3.78958 21.5154
rtibia 22.8612
rfoot -13.704 -9.64328
rtoes 2.59525
lfemur -9.80646 1.79577 -12.9656
ltibia 24.4965
lfoot -15.1778 4.76041
ltoes -19.6144
148
root 7.363 17.5603 -15.9505 3.35383 -2.09857 -1.85601
lowerback 3.98592 0.0725621 -0.211062
upperback 1.02423 0.119626 2.29896
thorax -1.18849 0.0604762 2.47345
lowerneck -17.2659 -3.32168 -10.5579
upperneck 14.9164 -3.10794 6.79393
head 7.7136 -1.44022 3.62259
rclavicle 3.97569e-015 -2.78299e-015
rhumerus 20.4659 0.122812 -50.553
rradius 103.602
rwrist 10.834
rhand -27.2655 25.5361
rfingers 7.12502
rthumb -0.676543 -4.44258
lclavicle 3.97569e-015 -2.78299e-015
lhumerus 20.2774 -0.605699 54.6283
lradius 105.838
lwrist -16.7682
lhand -7.58432 33.999
lfingers 7.12502
lthumb 18.3088 63.1573
rfemur -9.79354 -4.17963 21.4394
rtibia 22.8975
rfoot -13.6687 -9.52082
rtoes 2.01576
lfemur -9.87954 1.97265 -13.0757
ltibia 24.5718
lfoot -15.1019 4.62244
ltoes -20.2802
149
root 7.3559 17.5606 -15.9407 3.37236 -1.93077 -1.59652
lowerback 4.07888 0.007746 -0.341986
upperback 0.97774 0.0280889 2.18985
thorax -1.28409 0.0159459 2.43956
lowerneck -17.1314 -3.22191 -10.3231
upperneck 14.7084 -3.01344 6.65898
head 7.60677 -1.39421 3.54751
rclavicle -6.55989e-015 -1.98785e-015
rhumerus 20.439 0.246635 -50.4639
rradius 103.731
rwrist 11.3521
rhand -26.8919 25.1079
rfingers 7.12502
rthumb -0.315699 -4.87165
lclavicle -6.55989e-015 -1.98785e-015
lhumerus 19.8806 -0.660869 54.4128
lradius 106.048
lwrist -17.8267
lhand -8.06453 34.4674
lfingers 7.12502
lthumb 17.8468 63.6684
rfemur -9.81942 -4.52475 21.149
rtibia 22.9834
rfoot -13.78 -9.28822
rtoes 2.3174
lfemur -9.93623 1.93779 -13.3676
ltibia 24.6078
lfoot -15.1165 4.65082
ltoes -21.0529
150
root 7.35237 17.5598 -15.9319 3.32601 -1.94171 -1.48125
lowerback 4.17899 0.0972681 -0.386756
upperback 1.04514 0.143889 2.10108
thorax -1.27598 0.0733964 2.36734
lowerneck -17.0833 -3.26124 -10.0406
upperneck 14.5507 -3.11811 6.54919
head 7.54936 -1.43733 3.44994
rclavicle -4.96962e-015 -2.78299e-015
rhumerus 20.3141 0.0121317 -50.2451
rradius 103.741
rwrist 11.9151
rhand -26.7019 24.856
rfingers 7.12502
rthumb -0.132206 -5.12371
lclavicle -4.96962e-015 -2.78299e-015
lhumerus 19.9338 -0.827469 54.3725
lradius 105.926
lwrist -19.9597
lhand -7.92588 34.9895
lfingers 7.12502
lthumb 17.9802 64.1783
rfemur -9.77353 -4.68376 21.004
rtibia 23.0498
rfoot -13.8809 -9.12319
rtoes 2.21512
lfemur -9.90563 1.83449 -13.511
ltibia 24.7138
lfoot -15.269 4.88639
ltoes -22.0997
151
root 7.34038 17.5558 -15.9272 3.31122 -1.98482 -1.7381
lowerback 4.16412 0.128109 -0.292567
upperback 1.21063 0.188708 2.30315
thorax -1.10014 0.0933201 2.52019
lowerneck -17.0869 -3.26071 -10.2703
upperneck 14.2768 -3.07195 6.67119
head 7.46165 -1.41353 3.53089
rclavicle 3.8266e-015 1.47101e-014
rhumerus 20.4155 -0.169927 -49.8824
rradius 103.832
rwrist 11.7664
rhand -26.9194 24.9087
rfingers 7.12502
rthumb -0.342219 -5.07072
lclavicle 3.8266e-015 1.47101e-014
lhumerus 19.9467 -0.559925 54.5408
lradius 105.704
lwrist -22.1709
lhand -7.51898 35.0127
lfingers 7.12502
lthumb 18.3716 64.1652
rfemur -9.76436 -4.51704 21.323
rtibia 23.1132
rfoot -14.0075 -9.18407
rtoes 2.6265
lfemur -9.93605 1.91325 -13.1755
ltibia 24.8853
lfoot -15.4176 4.80844
ltoes -21.3699
152
root 7.32333 17.5493 -15.9298 3.48882 -1.8696 -2.03852
lowerback 4.06135 0.115502 -0.103672
upperback 1.18267 0.181226 2.46979
thorax -1.07101 0.0893419 2.58603
lowerneck -16.9365 -3.20163 -10.3652
upperneck 14.0827 -2.98122 6.69578
head 7.36588 -1.37334 3.56352
rclavicle 1.68967e-015 -7.55382e-015
rhumerus 20.3007 -0.333349 -49.6268
rradius 104.105
rwrist 11.4125
rhand -26.9328 24.8422
rfingers 7.12502
rthumb -0.355191 -5.13729
lclavicle 1.68967e-015 -7.55382e-015
lhumerus 19.79 -0.550118 54.6235
lradius 105.578
lwrist -23.4864
lhand -7.47137 34.6606
lfingers 7.12502
lthumb 18.4174 63.8087
rfemur -10.015 -4.37275 21.746
rtibia 23.2639
rfoot -14.1529 -9.36128
rtoes 3.23877
lfemur -10.2329 2.05335 -12.745
ltibia 25.0575
lfoot -15.5528 4.51506
ltoes -20.9933
153
root 7.31213 17.5484 -15.9319 3.66937 -1.74536 -1.93892
lowerback 4.07872 0.081717 -0.160393
upperback 1.07864 0.135652 2.42054
thorax -1.18542 0.0680637 2.56956
lowerneck -17.125 -3.17302 -10.1968
upperneck 14.2622 -2.95123 6.58946
head 7.45001 -1.35863 3.5053
rclavicle 7.05686e-015 -3.26007e-014
rhumerus 20.0789 -0.47005 -49.5399
rradius 104.443
rwrist 11.3286
rhand -26.6848 24.5588
rfingers 7.12502
rthumb -0.115637 -5.42087
lclavicle 7.05686e-015 -3.26007e-014
lhumerus 19.638 -0.637206 54.4976
lradius 105.514
lwrist -23.8286
lhand -7.67495 34.4406
lfingers 7.12502
lthumb 18.2216 63.6072
rfemur -10.3472 -4.45663 21.7019
rtibia 23.5337
rfoot -14.279 -9.40293
rtoes 2.91036
lfemur -10.5388 2.05922 -12.8101
ltibia 25.1855
lfoot -15.6006 4.44789
ltoes -21.3752
154
root 7.30685 17.5474 -15.9317 3.70056 -1.74159 -1.43297
lowerback 4.23765 0.0629305 -0.582879
upperback 1.00439 0.0931057 2.25289
thorax -1.34886 0.0494668 2.63724
lowerneck -16.9216 -3.19287 -10.4132
upperneck 14.2672 -2.98863 6.82494
head 7.42712 -1.37005 3.61636
rclavicle -3.57812e-015 -3.06128e-014
rhumerus 19.674 -0.503516 -49.422
rradius 104.832
rwrist 11.481
rhand -26.4509 24.3868
rfingers 7.12502
rthumb 0.110243 -5.59292
lclavicle -3.57812e-015 -3.06128e-014
lhumerus 19.4508 -0.610832 54.2833
lradius 105.683
lwrist -23.4609
lhand -7.60561 34.3706
lfingers 7.12502
lthumb 18.2883 63.5309
rfemur -10.5675 -4.59897 21.1569
rtibia 23.8753
rfoot -14.4028 -9.28222
rtoes 2.76627
lfemur -10.6318 2.0536 -13.3708
ltibia 25.2452
lfoot -15.6102 4.45397
ltoes -21.0389
155
root 7.30266 17.5415 -15.927 3.67822 -1.62277 -0.849709
lowerback 4.29645 0.0198463 -1.04188
upperback 1.03859 0.0119884 2.03617
thorax -1.34246 0.00977429 2.67677
lowerneck -16.5546 -3.2487 -10.8391
upperneck 14.1371 -3.08399 7.31892
head 7.34498 -1.39859 3.84101
rclavicle 7.85199e-015 3.18055e-015
rhumerus 19.483 -0.601538 -49.3323
rradius 105.087
rwrist 11.6815
rhand -26.2686 24.2321
rfingers 7.12502
rthumb 0.286293 -5.74747
lclavicle 7.85199e-015 3.18055e-015
lhumerus 19.3908 -0.617518 54.0497
lradius 106.029
lwrist -22.8843
lhand -7.32899 34.5906
lfingers 7.12502
lthumb 18.5544 63.7257
rfemur -10.6921 -4.93668 20.5148
rtibia 24.2214
rfoot -14.5639 -9.09913
rtoes 2.82245
lfemur -10.6459 2.09388 -14.0075
ltibia 25.268
lfoot -15.6507 4.26719
ltoes -20.7096
156
root 7.29281 17.5354 -15.9163 3.62423 -1.41932 -0.704963
lowerback 4.19632 -0.050801 -1.11166
upperback 1.19442 -0.0880133 1.95112
thorax -1.12107 -0.0436709 2.63286
lowerneck -17.2195 -3.20529 -10.6474
upperneck 14.2424 -3.00888 7.3467
head 7.48354 -1.33871 3.82773
rclavicle 3.23025e-015 1.66979e-014
rhumerus 19.6255 -0.80723 -49.2647
rradius 105.151
rwrist 11.8003
rhand -26.1104 24.0776
rfingers 7.12502
rthumb 0.439122 -5.90166
lclavicle 3.23025e-015 1.66979e-014
lhumerus 19.3723 -0.575446 53.888
lradius 106.253
lwrist -22.3385
lhand -7.29117 34.8657
lfingers 7.12502
lthumb 18.5908 63.9974
rfemur -10.7157 -5.29056 20.3738
rtibia 24.5173
rfoot -14.7931 -8.95129
rtoes 2.47308
lfemur -10.6241 2.13463 -14.1188
ltibia 25.3421
lfoot -15.7356 4.0343
ltoes -20.7018
